<svg xmlns="http://www.w3.org/2000/svg" viewBox="0 0 512 512" role="img" aria-label="Last Chance app icon"><rect x="24" y="24" width="464" height="464" rx="96" fill="#08090a"/><path fill="#f7f6f2" d="M267 127c-62 6-113 42-135 94-22 51-10 109 31 146 19 17 44 30 71 36-48-25-77-69-75-120 3-76 50-135 108-156Z"/><path fill="#f7f6f2" d="M332 126c-49 25-89 68-103 118-8 28 0 52 15 76 15 25 23 51 11 80-8 20-24 38-50 55 68-23 119-78 126-141 4-36-8-60-24-83-19-27-24-54-11-82 7-15 19-31 36-23Z"/><path fill="#f7f6f2" d="M339 157c40 24 67 66 69 117 3 71-41 130-111 153 70-2 132-51 146-120 12-59-23-121-104-150Z"/></svg>